<svg xmlns="http://www.w3.org/2000/svg" viewBox="0 0 16 16" id="Itch-Io--Streamline-Font-Awesome" height="16" width="16">
  <desc>
    Itch Io Streamline Icon: https://streamlinehq.com
  </desc>
<!--! Font Awesome Free 6.5.2 by @fontawesome - https://fontawesome.com License - https://fontawesome.com/license/free (Icons: CC BY 4.0, Fonts: SIL OFL 1.1, Code: MIT License) Copyright 2024 Fonticons, Inc.-->
  <path d="M2.2475 1.0865625C1.56875 1.4896875 0.23125 3.02625 0.21875 3.4290625v0.666875c0 0.845625 0.7903125 1.58875 1.5078125 1.58875 0.8615625 0 1.579375 -0.7140625 1.579375 -1.5625 0 0.8475 0.693125 1.5625 1.555 1.5625s1.53125 -0.7140625 1.53125 -1.5625c0 0.8475 0.7371875 1.5625 1.59875 1.5625h0.015625c0.8615625 0 1.59875 -0.7140625 1.59875 -1.5625 0 0.8475 0.6709375 1.5625 1.53125 1.5625s1.555 -0.7140625 1.555 -1.5625c0 0.8475 0.71875 1.5625 1.579375 1.5625 0.71875 0 1.5078125 -0.743125 1.5078125 -1.58875v-0.666875c-0.0125 -0.403125 -1.35 -1.9396875 -2.02875 -2.34375C11.6425 1.0125 10.18 1 8 1S2.848125 1.034375 2.2475 1.0865625zm4.135 4.1996875c-0.6875 1.2 -2.434375 1.2096875 -3.1203125 0.0078125 -0.4115625 0.723125 -1.3490625 1.0021875 -1.75 0.864375 -0.1209375 1.2546875 -0.4271875 7.4103125 0.5540625 8.4109375 2.5 0.5834375 9.44 0.56625 11.8675 0 0.9890625 -1.0084375 0.66625 -7.25 0.5546875 -8.4109375 -0.40375 0.13875 -1.34 -0.14375 -1.75 -0.864375 -0.6875 1.20375 -2.4328125 1.190625 -3.1203125 -0.0075 -0.221875 0.3903125 -0.7203125 0.904375 -1.6175 0.904375a1.798125 1.798125 0 0 1 -1.6171875 -0.904375zm-1.299375 1.6803125c0.5146875 0 0.9715625 0 1.538125 0.618125a13.6534375 13.6534375 0 0 1 2.755625 0C9.944375 6.96875 10.4015625 6.96875 10.9159375 6.96875c1.6353125 0 2.038125 2.4228125 2.6209375 4.5140625 0.539375 1.9421875 -0.1725 1.9896875 -1.0609375 1.9915625 -1.3171875 -0.0490625 -2.0465625 -1.005625 -2.0465625 -1.9621875 -1.2265625 0.2009375 -3.1853125 0.2746875 -4.8609375 0 0 0.9565625 -0.729375 1.913125 -2.0465625 1.9621875 -0.888125 -0.001875 -1.6 -0.049375 -1.060625 -1.9915625 0.5834375 -2.09375 0.98625 -4.5140625 2.62125 -4.5140625zM8 8.4621875s-1.386875 1.2740625 -1.6359375 1.7253125l0.90625 -0.0365625v0.79125c0 0.0484375 0.666875 0.005 0.7290625 0.005 0.3640625 0.016875 0.7284375 0.03125 0.7284375 -0.005v-0.79l0.90625 0.0365625c-0.25 -0.4525 -1.6359375 -1.72625 -1.6359375 -1.72625z" fill="#000000" stroke-width="0.0313"></path>
</svg>