<svg xmlns="http://www.w3.org/2000/svg" viewBox="0 0 16 16" id="Link--Streamline-Font-Awesome" height="16" width="16">
  <desc>
    Link Streamline Icon: https://streamlinehq.com
  </desc>
<!--! Font Awesome Free 6.5.2 by @fontawesome - https://fontawesome.com License - https://fontawesome.com/license/free (Icons: CC BY 4.0, Fonts: SIL OFL 1.1, Code: MIT License) Copyright 2024 Fonticons, Inc.-->
  <path d="M14.74057 8.303560000000001c1.4659075000000001 -1.4659050000000002 1.4659075000000001 -3.8398950000000003 0 -5.3058000000000005 -1.29726 -1.2972625000000002 -3.3417450000000004 -1.4659050000000002 -4.833595 -0.3995575l-0.04151250000000001 0.02854c-0.3736125 0.2672375 -0.45923 0.7861400000000001 -0.19199500000000003 1.1571575s0.7861400000000001 0.45923 1.1571575 0.19199500000000003l0.04151250000000001 -0.02854c0.8328424999999999 -0.594145 1.9718375000000004 -0.5007425 2.693115 0.22313000000000002 0.8172750000000001 0.8172750000000001 0.8172750000000001 2.14048 0 2.957755L10.6541975 10.044485000000002c-0.8172750000000001 0.8172750000000001 -2.1404825 0.8172750000000001 -2.9577575 0 -0.72387 -0.7238725 -0.8172750000000001 -1.8628675000000001 -0.22312750000000003 -2.693115l0.02854 -0.04151250000000001c0.267235 -0.3736125 0.17902 -0.8925175 -0.19199500000000003 -1.1571575s-0.8925175 -0.1790225 -1.1571575 0.19199500000000003l-0.02854 0.04151250000000001c-1.0689425000000001 1.489255 -0.9003000000000001 3.5337400000000003 0.39696250000000005 4.831 1.4659050000000002 1.4659075000000001 3.8398925 1.4659075000000001 5.3058000000000005 0l2.9136475 -2.9136475ZM1.25943 7.69644c-1.4659075000000001 1.4659075000000001 -1.4659075000000001 3.8398950000000003 0 5.3058000000000005 1.29726 1.2972625000000002 3.3417450000000004 1.4659050000000002 4.833595 0.3995575l0.04151250000000001 -0.02854c0.3736125 -0.267235 0.45923 -0.7861400000000001 0.19199500000000003 -1.1571575s-0.7861400000000001 -0.45923 -1.1571575 -0.19199500000000003l-0.04151250000000001 0.02854c-0.8328424999999999 0.594145 -1.9718375000000004 0.5007425 -2.693115 -0.22313000000000002 -0.8172750000000001 -0.8198675 -0.8172750000000001 -2.143075 0 -2.96035l2.911055 -2.9136500000000005c0.8172750000000001 -0.8172750000000001 2.1404825 -0.8172750000000001 2.9577575 0 0.72387 0.7238725 0.8172750000000001 1.8628675000000001 0.22312750000000003 2.69571l-0.02854 0.04151250000000001c-0.267235 0.3736125 -0.17902 0.8925150000000001 0.19199500000000003 1.1571575s0.8925175 0.1790225 1.1571575 -0.19199500000000003l0.02854 -0.04151250000000001c1.068945 -1.4918500000000001 0.9003000000000001 -3.536335 -0.39696250000000005 -4.833595 -1.4659050000000002 -1.4659075000000001 -3.8398925 -1.4659075000000001 -5.3058000000000005 0L1.25943 7.69644Z" fill="#000000" stroke-width="0.025"></path>
</svg>