<?xml version="1.0" encoding="UTF-8" ?>
<svg version="1.1" width="10000" height="10000" xmlns="http://www.w3.org/2000/svg" shape-rendering="crispEdges">
<rect x="5200" y="400" width="400" height="9200" fill="#FF89FA" />
<rect x="500" y="500" width="400" height="2000" fill="#FF89FA" />
<rect x="3700" y="500" width="400" height="1800" fill="#FF89FA" />
<rect x="5100" y="500" width="100" height="9000" fill="#FF89FA" />
<rect x="5600" y="500" width="100" height="9200" fill="#FF89FA" />
<rect x="5900" y="500" width="400" height="2600" fill="#4A2548" />
<rect x="7800" y="500" width="400" height="1000" fill="#FF89FA" />
<rect x="400" y="600" width="100" height="1300" fill="#FF89FA" />
<rect x="900" y="600" width="100" height="4300" fill="#FF89FA" />
<rect x="1200" y="600" width="400" height="1000" fill="#4A2548" />
<rect x="3600" y="600" width="100" height="3600" fill="#FF89FA" />
<rect x="4100" y="600" width="100" height="1200" fill="#FF89FA" />
<rect x="4400" y="600" width="400" height="1800" fill="#4A2548" />
<rect x="5000" y="600" width="100" height="4600" fill="#FF89FA" />
<rect x="5700" y="600" width="100" height="9000" fill="#FF89FA" />
<rect x="5800" y="600" width="100" height="3200" fill="#4A2548" />
<rect x="6300" y="600" width="100" height="2300" fill="#4A2548" />
<rect x="7700" y="600" width="100" height="1600" fill="#FF89FA" />
<rect x="8200" y="600" width="100" height="700" fill="#FF89FA" />
<rect x="8500" y="600" width="400" height="1000" fill="#4A2548" />
<rect x="300" y="700" width="100" height="600" fill="#FF89FA" />
<rect x="1000" y="700" width="100" height="4700" fill="#FF89FA" />
<rect x="1100" y="700" width="100" height="300" fill="#4A2548" />
<rect x="1600" y="700" width="100" height="3300" fill="#4A2548" />
<rect x="3500" y="700" width="100" height="4000" fill="#FF89FA" />
<rect x="4200" y="700" width="100" height="600" fill="#FF89FA" />
<rect x="4300" y="700" width="100" height="3600" fill="#4A2548" />
<rect x="4800" y="700" width="100" height="1200" fill="#4A2548" />
<rect x="6400" y="700" width="100" height="2100" fill="#4A2548" />
<rect x="7600" y="700" width="100" height="1700" fill="#FF89FA" />
<rect x="8300" y="700" width="100" height="400" fill="#FF89FA" />
<rect x="8400" y="700" width="100" height="1600" fill="#4A2548" />
<rect x="8900" y="700" width="100" height="700" fill="#4A2548" />
<rect x="1700" y="800" width="100" height="3800" fill="#4A2548" />
<rect x="4900" y="800" width="100" height="600" fill="#4A2548" />
<rect x="7500" y="800" width="100" height="1700" fill="#FF89FA" />
<rect x="9000" y="800" width="100" height="400" fill="#4A2548" />
<rect x="1100" y="1000" width="100" height="5000" fill="#FF89FA" />
<rect x="3400" y="1000" width="100" height="4200" fill="#FF89FA" />
<rect x="7400" y="1000" width="100" height="1700" fill="#FF89FA" />
<rect x="1800" y="1100" width="100" height="4000" fill="#4A2548" />
<rect x="8300" y="1100" width="100" height="1400" fill="#4A2548" />
<rect x="7300" y="1200" width="100" height="1700" fill="#FF89FA" />
<rect x="4200" y="1300" width="100" height="3500" fill="#4A2548" />
<rect x="8200" y="1300" width="100" height="1300" fill="#4A2548" />
<rect x="7200" y="1400" width="100" height="1700" fill="#FF89FA" />
<rect x="3300" y="1500" width="100" height="4100" fill="#FF89FA" />
<rect x="7100" y="1500" width="100" height="1700" fill="#FF89FA" />
<rect x="7800" y="1500" width="300" height="200" fill="#FF89FA" />
<rect x="8100" y="1500" width="100" height="1300" fill="#4A2548" />
<rect x="1200" y="1600" width="100" height="5000" fill="#FF89FA" />
<rect x="1300" y="1600" width="300" height="600" fill="#4A2548" />
<rect x="8500" y="1600" width="300" height="200" fill="#4A2548" />
<rect x="1900" y="1700" width="100" height="4000" fill="#4A2548" />
<rect x="7000" y="1700" width="100" height="1700" fill="#FF89FA" />
<rect x="7800" y="1700" width="200" height="100" fill="#FF89FA" />
<rect x="8000" y="1700" width="100" height="1300" fill="#4A2548" />
<rect x="4100" y="1800" width="100" height="3500" fill="#4A2548" />
<rect x="7800" y="1800" width="100" height="200" fill="#FF89FA" />
<rect x="7900" y="1800" width="100" height="1400" fill="#4A2548" />
<rect x="8500" y="1800" width="200" height="100" fill="#4A2548" />
<rect x="6900" y="1900" width="100" height="1700" fill="#FF89FA" />
<rect x="8500" y="1900" width="100" height="200" fill="#4A2548" />
<rect x="3200" y="2000" width="100" height="4100" fill="#FF89FA" />
<rect x="7800" y="2000" width="100" height="1300" fill="#4A2548" />
<rect x="6800" y="2100" width="100" height="1700" fill="#FF89FA" />
<rect x="1300" y="2200" width="100" height="5000" fill="#FF89FA" />
<rect x="1400" y="2200" width="200" height="600" fill="#4A2548" />
<rect x="6700" y="2200" width="100" height="1700" fill="#FF89FA" />
<rect x="7700" y="2200" width="100" height="1300" fill="#4A2548" />
<rect x="2000" y="2300" width="100" height="4000" fill="#4A2548" />
<rect x="3700" y="2300" width="300" height="400" fill="#FF89FA" />
<rect x="4000" y="2300" width="100" height="3400" fill="#4A2548" />
<rect x="3100" y="2400" width="100" height="4200" fill="#FF89FA" />
<rect x="4400" y="2400" width="300" height="400" fill="#4A2548" />
<rect x="6600" y="2400" width="100" height="1700" fill="#FF89FA" />
<rect x="7600" y="2400" width="100" height="1300" fill="#4A2548" />
<rect x="600" y="2500" width="300" height="600" fill="#FF89FA" />
<rect x="7500" y="2500" width="100" height="1400" fill="#4A2548" />
<rect x="6500" y="2600" width="100" height="1700" fill="#FF89FA" />
<rect x="3700" y="2700" width="200" height="500" fill="#FF89FA" />
<rect x="3900" y="2700" width="100" height="3500" fill="#4A2548" />
<rect x="7400" y="2700" width="100" height="1300" fill="#4A2548" />
<rect x="1400" y="2800" width="100" height="5000" fill="#FF89FA" />
<rect x="1500" y="2800" width="100" height="600" fill="#4A2548" />
<rect x="4400" y="2800" width="200" height="500" fill="#4A2548" />
<rect x="6400" y="2800" width="100" height="1700" fill="#FF89FA" />
<rect x="2100" y="2900" width="100" height="4000" fill="#4A2548" />
<rect x="3000" y="2900" width="100" height="4200" fill="#FF89FA" />
<rect x="6300" y="2900" width="100" height="1700" fill="#FF89FA" />
<rect x="7300" y="2900" width="100" height="1300" fill="#4A2548" />
<rect x="700" y="3100" width="200" height="600" fill="#FF89FA" />
<rect x="5900" y="3100" width="300" height="200" fill="#4A2548" />
<rect x="6200" y="3100" width="100" height="1700" fill="#FF89FA" />
<rect x="7200" y="3100" width="100" height="1300" fill="#4A2548" />
<rect x="3700" y="3200" width="100" height="500" fill="#FF89FA" />
<rect x="3800" y="3200" width="100" height="3500" fill="#4A2548" />
<rect x="7100" y="3200" width="100" height="1400" fill="#4A2548" />
<rect x="4400" y="3300" width="100" height="500" fill="#4A2548" />
<rect x="5900" y="3300" width="200" height="200" fill="#4A2548" />
<rect x="6100" y="3300" width="100" height="3000" fill="#FF89FA" />
<rect x="1500" y="3400" width="100" height="5000" fill="#FF89FA" />
<rect x="2900" y="3400" width="100" height="4200" fill="#FF89FA" />
<rect x="7000" y="3400" width="100" height="1300" fill="#4A2548" />
<rect x="2200" y="3500" width="100" height="3300" fill="#4A2548" />
<rect x="5900" y="3500" width="100" height="100" fill="#4A2548" />
<rect x="6000" y="3500" width="100" height="2600" fill="#FF89FA" />
<rect x="5900" y="3600" width="100" height="2400" fill="#FF89FA" />
<rect x="6900" y="3600" width="100" height="1300" fill="#4A2548" />
<rect x="800" y="3700" width="100" height="600" fill="#FF89FA" />
<rect x="3700" y="3700" width="100" height="3500" fill="#4A2548" />
<rect x="5800" y="3800" width="100" height="5700" fill="#FF89FA" />
<rect x="6800" y="3800" width="100" height="2000" fill="#4A2548" />
<rect x="2800" y="3900" width="100" height="4100" fill="#FF89FA" />
<rect x="6700" y="3900" width="100" height="1800" fill="#4A2548" />
<rect x="1600" y="4000" width="100" height="5000" fill="#FF89FA" />
<rect x="2300" y="4100" width="100" height="2200" fill="#4A2548" />
<rect x="6600" y="4100" width="100" height="1400" fill="#4A2548" />
<rect x="3600" y="4200" width="100" height="3500" fill="#4A2548" />
<rect x="6500" y="4300" width="100" height="1100" fill="#4A2548" />
<rect x="2700" y="4400" width="100" height="4100" fill="#FF89FA" />
<rect x="6400" y="4500" width="100" height="700" fill="#4A2548" />
<rect x="1700" y="4600" width="100" height="4700" fill="#FF89FA" />
<rect x="6300" y="4600" width="100" height="500" fill="#4A2548" />
<rect x="2400" y="4700" width="100" height="1100" fill="#4A2548" />
<rect x="3500" y="4700" width="100" height="3400" fill="#4A2548" />
<rect x="6200" y="4800" width="100" height="100" fill="#4A2548" />
<rect x="2600" y="4900" width="100" height="4100" fill="#FF89FA" />
<rect x="6200" y="4900" width="100" height="1600" fill="#FF89FA" />
<rect x="6900" y="5000" width="100" height="1000" fill="#4A2548" />
<rect x="1800" y="5100" width="100" height="4300" fill="#FF89FA" />
<rect x="6300" y="5100" width="100" height="1500" fill="#FF89FA" />
<rect x="2500" y="5200" width="100" height="100" fill="#4A2548" />
<rect x="3400" y="5200" width="100" height="3400" fill="#4A2548" />
<rect x="6400" y="5200" width="100" height="1600" fill="#FF89FA" />
<rect x="7000" y="5200" width="100" height="1000" fill="#4A2548" />
<rect x="2500" y="5300" width="100" height="4000" fill="#FF89FA" />
<rect x="7100" y="5300" width="100" height="1000" fill="#4A2548" />
<rect x="6500" y="5400" width="100" height="1500" fill="#FF89FA" />
<rect x="6600" y="5500" width="100" height="1600" fill="#FF89FA" />
<rect x="7200" y="5500" width="100" height="1000" fill="#4A2548" />
<rect x="3300" y="5600" width="100" height="3500" fill="#4A2548" />
<rect x="7300" y="5600" width="100" height="1000" fill="#4A2548" />
<rect x="1900" y="5700" width="100" height="3800" fill="#FF89FA" />
<rect x="6700" y="5700" width="100" height="1500" fill="#FF89FA" />
<rect x="2400" y="5800" width="100" height="3600" fill="#FF89FA" />
<rect x="6800" y="5800" width="100" height="1600" fill="#FF89FA" />
<rect x="7400" y="5800" width="100" height="1000" fill="#4A2548" />
<rect x="7500" y="5900" width="100" height="1000" fill="#4A2548" />
<rect x="5900" y="6000" width="100" height="3700" fill="#4A2548" />
<rect x="6900" y="6000" width="100" height="1500" fill="#FF89FA" />
<rect x="3200" y="6100" width="100" height="3300" fill="#4A2548" />
<rect x="6000" y="6100" width="100" height="3700" fill="#4A2548" />
<rect x="7600" y="6100" width="100" height="1000" fill="#4A2548" />
<rect x="7000" y="6200" width="100" height="1500" fill="#FF89FA" />
<rect x="2000" y="6300" width="100" height="3200" fill="#FF89FA" />
<rect x="2300" y="6300" width="100" height="3200" fill="#FF89FA" />
<rect x="6100" y="6300" width="100" height="3500" fill="#4A2548" />
<rect x="7100" y="6300" width="100" height="1500" fill="#FF89FA" />
<rect x="7700" y="6300" width="100" height="900" fill="#4A2548" />
<rect x="7800" y="6400" width="100" height="1000" fill="#4A2548" />
<rect x="6200" y="6500" width="100" height="3300" fill="#4A2548" />
<rect x="7200" y="6500" width="100" height="1500" fill="#FF89FA" />
<rect x="3100" y="6600" width="100" height="2900" fill="#4A2548" />
<rect x="6300" y="6600" width="100" height="3200" fill="#4A2548" />
<rect x="7300" y="6600" width="100" height="1500" fill="#FF89FA" />
<rect x="7900" y="6600" width="100" height="900" fill="#4A2548" />
<rect x="8000" y="6700" width="100" height="1000" fill="#4A2548" />
<rect x="2200" y="6800" width="100" height="2700" fill="#FF89FA" />
<rect x="6400" y="6800" width="100" height="2900" fill="#4A2548" />
<rect x="7400" y="6800" width="100" height="1500" fill="#FF89FA" />
<rect x="2100" y="6900" width="100" height="2600" fill="#FF89FA" />
<rect x="6500" y="6900" width="100" height="2700" fill="#4A2548" />
<rect x="7500" y="6900" width="100" height="1600" fill="#FF89FA" />
<rect x="8100" y="6900" width="100" height="900" fill="#4A2548" />
<rect x="8200" y="7000" width="100" height="1000" fill="#4A2548" />
<rect x="3000" y="7100" width="100" height="2500" fill="#4A2548" />
<rect x="7600" y="7100" width="100" height="1500" fill="#FF89FA" />
<rect x="7700" y="7200" width="100" height="1600" fill="#FF89FA" />
<rect x="8300" y="7200" width="100" height="1000" fill="#4A2548" />
<rect x="8400" y="7300" width="100" height="1000" fill="#4A2548" />
<rect x="7800" y="7400" width="100" height="1500" fill="#FF89FA" />
<rect x="7900" y="7500" width="100" height="1600" fill="#FF89FA" />
<rect x="8500" y="7500" width="100" height="1000" fill="#4A2548" />
<rect x="2900" y="7600" width="100" height="2000" fill="#4A2548" />
<rect x="8600" y="7600" width="100" height="1000" fill="#4A2548" />
<rect x="8000" y="7700" width="100" height="1500" fill="#FF89FA" />
<rect x="8100" y="7800" width="100" height="1600" fill="#FF89FA" />
<rect x="8700" y="7800" width="100" height="1000" fill="#4A2548" />
<rect x="8800" y="7900" width="100" height="1000" fill="#4A2548" />
<rect x="2800" y="8000" width="100" height="1600" fill="#4A2548" />
<rect x="8200" y="8000" width="100" height="1500" fill="#FF89FA" />
<rect x="8900" y="8100" width="100" height="1000" fill="#4A2548" />
<rect x="8300" y="8200" width="100" height="1400" fill="#FF89FA" />
<rect x="8400" y="8300" width="100" height="1400" fill="#FF89FA" />
<rect x="9000" y="8300" width="100" height="1400" fill="#4A2548" />
<rect x="9100" y="8400" width="100" height="1400" fill="#4A2548" />
<rect x="2700" y="8500" width="100" height="1100" fill="#4A2548" />
<rect x="8500" y="8500" width="100" height="1200" fill="#FF89FA" />
<rect x="8600" y="8600" width="100" height="1100" fill="#FF89FA" />
<rect x="9200" y="8600" width="100" height="1200" fill="#4A2548" />
<rect x="9300" y="8700" width="100" height="1100" fill="#4A2548" />
<rect x="8700" y="8800" width="100" height="900" fill="#FF89FA" />
<rect x="8800" y="8900" width="100" height="700" fill="#FF89FA" />
<rect x="9400" y="8900" width="100" height="900" fill="#4A2548" />
<rect x="2600" y="9000" width="100" height="600" fill="#4A2548" />
<rect x="9500" y="9000" width="100" height="700" fill="#4A2548" />
<rect x="8900" y="9100" width="100" height="400" fill="#FF89FA" />
<rect x="9600" y="9200" width="100" height="400" fill="#4A2548" />
<rect x="2500" y="9300" width="100" height="200" fill="#4A2548" />
<rect x="5800" y="9500" width="100" height="100" fill="#4A2548" />
<rect x="8900" y="9500" width="100" height="100" fill="#4A2548" />
<rect x="5300" y="9600" width="300" height="100" fill="#FF89FA" />
</svg>